<?xml version="1.0" standalone="no"?>
<!DOCTYPE svg PUBLIC "-//W3C//DTD SVG 20010904//EN"
 "http://www.w3.org/TR/2001/REC-SVG-20010904/DTD/svg10.dtd">
<svg version="1.0" xmlns="http://www.w3.org/2000/svg"
 width="256.000000pt" height="256.000000pt" viewBox="0 0 256.000000 256.000000"
 preserveAspectRatio="xMidYMid meet">

<g transform="translate(0.000000,256.000000) scale(0.100000,-0.100000)"
fill="#000000" stroke="none">
<path d="M1816 2535 c-32 -11 -220 -194 -904 -877 -592 -591 -870 -876 -883
-903 -36 -78 -19 -165 44 -229 41 -40 98 -66 147 -66 83 0 66 -15 866 782
l761 760 6 -60 c6 -71 46 -153 92 -187 66 -50 96 -58 222 -65 141 -6 168 -19
193 -88 13 -37 13 -47 0 -84 -8 -22 -28 -51 -43 -62 -27 -20 -43 -21 -390 -26
l-362 -5 -55 -31 c-131 -73 -176 -235 -102 -367 31 -57 98 -109 160 -127 20
-5 123 -10 227 -10 216 0 246 -8 277 -70 28 -56 23 -111 -18 -193 -20 -39 -37
-73 -38 -74 0 0 -48 -8 -106 -17 -84 -12 -109 -19 -122 -37 -34 -41 -24 -68
59 -148 l76 -76 -17 -104 c-15 -94 -15 -106 -1 -127 29 -44 61 -42 162 12 l93
49 93 -49 c101 -54 133 -56 162 -12 14 21 14 33 -1 127 l-17 104 77 76 c81 81
92 107 59 148 -14 18 -39 25 -124 38 l-106 16 -37 74 c-26 53 -36 86 -36 121
0 106 -52 197 -140 246 l-55 31 -222 5 c-252 6 -265 10 -293 88 -13 37 -13 47
0 84 8 22 28 51 43 62 27 20 43 21 390 26 l362 5 55 31 c61 34 113 100 131
167 27 101 -19 225 -105 284 -63 43 -103 53 -211 53 -161 0 -195 36 -195 209
l0 103 44 49 c153 170 -6 420 -218 344z m119 -150 c14 -13 25 -34 25 -47 0
-17 -148 -171 -560 -583 l-560 -560 -45 45 c-25 24 -45 49 -45 55 0 6 249 259
553 563 599 598 579 581 632 527z m-1242 -1243 l47 -48 -248 -247 c-177 -176
-254 -247 -270 -247 -13 0 -34 11 -47 25 -51 50 -45 58 217 322 133 133 245
243 248 243 3 0 27 -22 53 -48z m1492 -663 c22 -47 33 -54 98 -64 l49 -8 -42
-42 -42 -43 7 -57 8 -57 -41 21 c-51 26 -72 26 -123 1 l-40 -21 6 58 c7 57 6
59 -29 92 -20 19 -36 38 -36 42 0 4 19 10 43 14 59 10 71 18 92 64 10 23 21
41 25 41 4 0 15 -18 25 -41z"/>
</g>
</svg>
