<?xml version="1.0" standalone="no"?>
<!DOCTYPE svg PUBLIC "-//W3C//DTD SVG 20010904//EN"
 "http://www.w3.org/TR/2001/REC-SVG-20010904/DTD/svg10.dtd">
<svg version="1.0" xmlns="http://www.w3.org/2000/svg"
 width="512.000000pt" height="512.000000pt" viewBox="0 0 512.000000 512.000000"
 preserveAspectRatio="xMidYMid meet">

<g transform="translate(0.000000,512.000000) scale(0.100000,-0.100000)"
fill="#000000" stroke="none">
<path d="M2893 5080 c-42 -25 -60 -54 -78 -124 -30 -113 -90 -201 -177 -258
-111 -72 -106 -72 -493 -78 -329 -6 -354 -8 -415 -29 -186 -65 -331 -208 -397
-392 -22 -64 -26 -90 -27 -194 0 -106 3 -129 27 -198 15 -42 38 -95 51 -116
l25 -39 -67 -17 c-185 -46 -360 -190 -445 -365 -74 -152 -93 -291 -62 -448 15
-73 69 -201 115 -269 l21 -31 -33 -7 c-93 -20 -214 -90 -302 -173 -173 -168
-248 -405 -200 -640 15 -79 63 -192 108 -258 l26 -38 -53 -16 c-107 -33 -198
-90 -288 -180 -72 -71 -94 -101 -133 -180 -101 -206 -101 -414 0 -618 74 -150
206 -275 359 -339 131 -55 44 -53 2105 -53 2137 0 1978 -6 2150 77 81 39 108
58 180 132 144 145 205 292 205 491 0 200 -62 347 -205 491 -90 91 -195 155
-293 179 l-47 12 20 32 c46 67 100 195 115 268 59 297 -79 597 -346 751 -25
14 -78 37 -117 50 l-71 24 25 37 c74 108 124 269 124 396 0 127 -50 288 -124
397 -103 152 -286 266 -473 294 l-82 12 30 38 c16 20 49 75 73 121 193 363 79
820 -263 1053 -84 57 -459 225 -503 225 -18 0 -47 -9 -65 -20z m289 -374 c138
-65 203 -116 262 -204 70 -105 90 -176 90 -307 0 -92 -5 -121 -25 -175 -68
-180 -207 -302 -393 -345 -58 -14 -152 -15 -674 -13 l-607 3 -57 28 c-72 35
-130 93 -165 165 -24 49 -28 69 -28 142 0 71 4 94 26 140 33 70 99 136 169
169 l55 26 345 6 c385 6 403 9 555 87 90 46 228 181 276 269 19 35 40 63 46
63 7 0 63 -24 125 -54z m568 -1354 c113 -46 197 -130 242 -242 31 -78 31 -222
0 -300 -45 -112 -129 -196 -242 -242 l-55 -23 -1109 -3 c-1226 -3 -1174 -5
-1285 61 -102 61 -173 167 -194 291 -28 164 52 338 194 423 108 65 51 62 1279
60 l1115 -2 55 -23z m400 -1120 c113 -46 197 -130 242 -242 31 -78 31 -222 0
-300 -45 -112 -129 -196 -242 -242 l-55 -23 -1509 -3 c-1668 -3 -1573 -6
-1685 61 -102 61 -173 167 -194 291 -28 164 52 338 194 423 110 66 11 62 1679
60 l1515 -2 55 -23z m400 -1120 c113 -46 197 -130 242 -242 31 -78 31 -222 0
-300 -45 -112 -129 -196 -242 -242 l-55 -23 -1909 -3 c-2110 -3 -1972 -7
-2085 61 -102 61 -173 167 -194 291 -28 164 52 338 194 423 110 66 -29 62
2079 60 l1915 -2 55 -23z"/>
<path d="M412 4920 c-42 -26 -72 -76 -72 -120 0 -70 69 -140 138 -140 37 0 97
-23 126 -48 27 -24 56 -91 56 -132 0 -67 69 -140 133 -140 41 0 91 24 115 55
30 38 37 87 22 167 -31 174 -170 322 -341 363 -87 20 -138 19 -177 -5z"/>
<path d="M4446 4524 c-158 -38 -293 -175 -331 -335 -28 -122 -13 -186 57 -229
80 -49 188 4 203 99 22 141 65 184 206 206 95 15 148 123 99 203 -43 69 -111
86 -234 56z"/>
<path d="M332 4040 c-94 -57 -94 -183 0 -240 41 -25 82 -25 127 -2 101 51 106
183 9 242 -18 11 -49 20 -68 20 -19 0 -50 -9 -68 -20z"/>
<path d="M4732 3080 c-94 -57 -94 -183 0 -240 41 -25 82 -25 127 -2 101 51
106 183 9 242 -18 11 -49 20 -68 20 -19 0 -50 -9 -68 -20z"/>
</g>
</svg>
