<?xml version="1.0" standalone="no"?>
<!DOCTYPE svg PUBLIC "-//W3C//DTD SVG 20010904//EN"
 "http://www.w3.org/TR/2001/REC-SVG-20010904/DTD/svg10.dtd">
<svg version="1.0" xmlns="http://www.w3.org/2000/svg"
 width="512.000000pt" height="512.000000pt" viewBox="0 0 512.000000 512.000000"
 preserveAspectRatio="xMidYMid meet">

<g transform="translate(0.000000,512.000000) scale(0.100000,-0.100000)"
fill="#000000" stroke="none">
<path d="M2130 5059 c-174 -20 -404 -78 -575 -144 -722 -279 -1254 -879 -1445
-1628 -51 -203 -70 -358 -70 -583 0 -278 38 -508 126 -767 270 -793 959 -1392
1783 -1551 328 -64 671 -59 979 14 76 18 121 20 492 20 450 0 501 -5 632 -60
41 -17 121 -66 183 -111 222 -163 413 -229 663 -229 136 0 197 43 197 140 0
97 -61 140 -197 140 -186 0 -327 48 -483 165 -218 163 -421 235 -663 235 l-95
0 59 38 c330 216 623 550 804 917 117 238 189 469 226 720 25 166 25 506 1
665 -106 685 -486 1280 -1057 1652 -295 193 -679 329 -1032 367 -113 13 -419
12 -528 0z m625 -271 c66 -11 122 -22 125 -24 2 -3 -105 -114 -238 -247 l-242
-242 -127 127 -128 128 145 146 145 146 100 -7 c55 -3 154 -15 220 -27z m-785
-33 c-18 -19 -26 -22 -37 -14 -20 17 -16 27 15 32 15 2 31 5 36 6 5 0 -1 -10
-14 -24z m1009 -1459 c1234 -1234 1363 -1366 1356 -1387 -10 -30 -106 -222
-137 -271 l-23 -38 -1448 1448 -1448 1448 63 36 c77 45 248 128 262 128 6 0
625 -614 1375 -1364z m347 1305 c66 -33 136 -70 156 -83 l38 -23 -335 -335
-335 -335 -125 125 -125 125 292 292 c161 161 298 293 304 293 6 0 65 -27 130
-59z m-797 -1755 c1289 -1289 1472 -1476 1463 -1492 -13 -25 -226 -234 -238
-234 -5 0 -672 663 -1483 1474 -1285 1285 -1472 1476 -1463 1492 12 23 227
234 239 234 4 0 671 -663 1482 -1474z m1343 1367 c60 -60 114 -116 120 -127 9
-16 -35 -64 -338 -367 l-349 -349 -127 127 -128 128 347 347 c192 192 352 348
357 348 5 0 58 -48 118 -107z m-3279 -835 c-136 -136 -248 -246 -250 -244 -5
5 43 181 73 271 31 93 107 258 166 363 l42 73 108 -108 108 -108 -247 -247z
m3688 268 c32 -65 59 -124 59 -130 0 -6 -132 -143 -293 -304 l-292 -292 -125
125 -125 125 335 335 335 335 23 -38 c13 -20 50 -90 83 -156z m-3111 -351
l125 -125 -465 -465 c-256 -256 -468 -465 -471 -465 -10 0 -39 177 -51 313
l-12 128 369 369 c204 204 372 370 375 370 3 0 61 -56 130 -125z m3294 -192
c10 -54 23 -153 29 -221 l11 -123 -147 -147 -147 -147 -127 128 -128 127 240
240 c132 132 243 240 246 240 3 0 14 -44 23 -97z m-3279 -943 l-560 -560 -23
38 c-34 54 -142 273 -142 287 0 7 233 244 518 528 l517 516 125 -124 125 -125
-560 -560z m443 -467 c-315 -315 -577 -573 -582 -573 -12 0 -224 209 -238 234
-9 16 63 92 563 592 l574 574 127 -127 128 -128 -572 -572z m2825 585 c-8 -42
-9 -44 -28 -28 -14 12 -13 15 6 37 13 12 24 23 25 23 2 0 1 -15 -3 -32z
m-1925 -341 l122 -122 -519 -519 c-467 -467 -521 -517 -542 -511 -33 10 -170
79 -247 123 l-62 36 557 558 c307 307 560 558 563 558 3 0 60 -55 128 -123z
m452 -452 l125 -125 -370 -371 -370 -371 -95 7 c-92 5 -340 42 -350 51 -4 5
921 934 930 934 3 0 61 -56 130 -125z m502 -563 c-86 -55 -306 -155 -419 -192
-120 -39 -244 -72 -250 -66 -2 1 108 114 244 249 l248 247 107 -108 108 -107
-38 -23z"/>
</g>
</svg>
