<?xml version="1.0" standalone="no"?>
<!DOCTYPE svg PUBLIC "-//W3C//DTD SVG 20010904//EN"
 "http://www.w3.org/TR/2001/REC-SVG-20010904/DTD/svg10.dtd">
<svg version="1.0" xmlns="http://www.w3.org/2000/svg"
 width="512.000000pt" height="512.000000pt" viewBox="0 0 512.000000 512.000000"
 preserveAspectRatio="xMidYMid meet">

<g transform="translate(0.000000,512.000000) scale(0.100000,-0.100000)"
fill="#000000" stroke="none">
<path d="M2446 5084 c-113 -27 -234 -120 -290 -223 -57 -106 -56 -70 -56
-1368 l0 -1193 -478 0 c-445 0 -484 -1 -556 -20 -99 -25 -176 -69 -247 -139
-70 -71 -114 -148 -139 -247 -19 -74 -20 -112 -20 -924 l0 -847 23 -34 c12
-19 38 -42 57 -51 33 -17 141 -18 1820 -18 1680 0 1787 1 1819 18 19 9 44 30
55 45 21 28 21 37 24 878 3 938 4 917 -60 1047 -39 78 -131 175 -210 220 -31
18 -91 41 -134 52 -72 19 -111 20 -556 20 l-478 0 0 1193 c0 1308 2 1264 -60
1372 -104 181 -309 269 -514 219z m181 -279 c50 -21 72 -42 94 -90 18 -38 19
-87 19 -907 l0 -868 -180 0 -180 0 0 865 c0 756 2 870 15 902 21 50 42 72 90
94 49 23 94 24 142 4z m113 -2325 l0 -180 -180 0 -180 0 0 180 0 180 180 0
180 0 0 -180z m1295 -487 c47 -25 95 -74 121 -123 18 -32 19 -66 21 -435 l2
-400 -104 309 c-57 169 -111 319 -120 333 -9 13 -30 33 -48 43 -31 19 -61 20
-1347 20 -1286 0 -1316 -1 -1347 -20 -18 -10 -39 -30 -48 -43 -9 -14 -63 -164
-120 -333 l-104 -309 2 400 c2 369 3 403 21 435 36 68 97 120 166 141 14 4
664 7 1445 6 l1420 -2 40 -22z m-106 -1106 c105 -314 191 -575 191 -580 0 -4
-702 -7 -1560 -7 -858 0 -1560 3 -1560 7 0 5 86 266 191 580 l191 573 1178 0
1178 0 191 -573z"/>
</g>
</svg>
