<?xml version="1.0" standalone="no"?>
<!DOCTYPE svg PUBLIC "-//W3C//DTD SVG 20010904//EN"
 "http://www.w3.org/TR/2001/REC-SVG-20010904/DTD/svg10.dtd">
<svg version="1.0" xmlns="http://www.w3.org/2000/svg"
 width="512.000000pt" height="512.000000pt" viewBox="0 0 512.000000 512.000000"
 preserveAspectRatio="xMidYMid meet">

<g transform="translate(0.000000,512.000000) scale(0.100000,-0.100000)"
fill="#000000" stroke="none">
<path d="M3849 4677 c-34 -26 -39 -55 -39 -222 0 -209 10 -235 91 -235 36 0
66 29 74 72 4 19 5 104 3 190 -3 150 -4 158 -27 182 -27 28 -74 34 -102 13z"/>
<path d="M3332 4457 c-14 -15 -22 -36 -22 -58 0 -32 13 -48 133 -167 116 -114
138 -132 166 -132 43 0 81 38 81 82 0 28 -17 49 -133 165 -120 121 -136 133
-168 133 -24 0 -42 -7 -57 -23z"/>
<path d="M4233 4347 c-116 -116 -133 -137 -133 -165 0 -44 38 -82 82 -82 28 0
49 17 165 133 116 116 133 137 133 165 0 22 -9 41 -25 57 -16 16 -35 25 -57
25 -28 0 -49 -17 -165 -133z"/>
<path d="M3384 3499 l-532 -531 -55 45 c-74 60 -134 75 -214 52 -58 -17 -59
-17 -1076 -1033 -589 -588 -1030 -1036 -1045 -1062 -35 -58 -37 -145 -5 -205
26 -49 265 -286 313 -311 55 -29 145 -25 200 8 26 15 474 456 1062 1045 1016
1017 1016 1018 1033 1076 23 80 8 140 -52 214 l-45 55 531 532 c485 485 531
534 531 564 0 22 -8 41 -25 57 -16 17 -35 25 -57 25 -30 0 -79 -46 -564 -531z
m-597 -711 c75 -75 123 -130 123 -143 0 -12 -41 -61 -102 -122 l-103 -103
-142 142 -143 143 102 102 c62 62 111 103 123 103 12 0 67 -47 142 -122z
m-892 -1178 l-695 -695 -142 143 -143 142 695 695 695 695 142 -142 143 -143
-695 -695z m-950 -670 l140 -140 -100 -100 c-73 -74 -106 -100 -125 -100 -35
0 -260 224 -260 260 0 18 26 51 97 122 54 54 100 98 103 98 3 0 68 -63 145
-140z"/>
<path d="M1704 1818 c-96 -94 -177 -183 -182 -198 -20 -56 37 -121 92 -104 11
3 101 85 199 182 158 158 177 180 177 210 0 44 -38 82 -81 82 -29 0 -53 -21
-205 -172z"/>
<path d="M4265 3969 c-30 -17 -45 -40 -45 -70 0 -79 28 -89 235 -89 167 0 196
5 222 39 21 28 15 75 -13 102 -25 23 -31 24 -202 27 -118 1 -184 -2 -197 -9z"/>
<path d="M4125 3665 c-16 -16 -25 -35 -25 -57 0 -28 17 -49 133 -165 122 -122
136 -133 169 -133 44 0 78 36 78 83 0 27 -20 51 -133 164 -116 116 -137 133
-165 133 -22 0 -41 -9 -57 -25z"/>
</g>
</svg>
