<?xml version="1.0" standalone="no"?>
<!DOCTYPE svg PUBLIC "-//W3C//DTD SVG 20010904//EN"
 "http://www.w3.org/TR/2001/REC-SVG-20010904/DTD/svg10.dtd">
<svg version="1.0" xmlns="http://www.w3.org/2000/svg"
 width="512.000000pt" height="512.000000pt" viewBox="0 0 512.000000 512.000000"
 preserveAspectRatio="xMidYMid meet">

<g transform="translate(0.000000,512.000000) scale(0.100000,-0.100000)"
fill="#000000" stroke="none">
<path d="M1193 4440 c-89 -18 -160 -76 -205 -167 -42 -87 -45 -151 -23 -566
l16 -317 -79 -106 c-129 -172 -219 -349 -277 -548 -29 -101 -55 -269 -55 -357
l0 -64 -129 -68 c-74 -38 -141 -81 -155 -98 -55 -66 -21 -165 65 -191 39 -11
44 -10 139 40 l100 52 6 -27 c3 -16 12 -51 20 -80 8 -28 14 -53 14 -56 0 -3
-61 -38 -136 -78 -146 -78 -174 -105 -174 -167 0 -69 52 -122 119 -122 18 0
82 27 156 66 69 37 127 65 129 63 1 -2 24 -40 51 -84 75 -126 146 -213 267
-331 294 -284 683 -464 1158 -535 205 -31 515 -31 720 0 369 55 702 183 965
369 101 72 290 254 359 346 30 39 75 107 101 151 27 44 50 82 51 84 2 2 60
-26 129 -63 74 -39 138 -66 156 -66 67 0 119 53 119 122 0 61 -28 89 -161 160
-68 37 -130 71 -137 75 -12 7 -11 17 1 63 8 30 18 67 21 83 l6 27 100 -52 c95
-50 100 -51 139 -40 89 27 121 127 62 194 -17 19 -82 60 -155 98 l-126 65 0
65 c-1 279 -128 634 -318 884 -37 49 -72 96 -79 105 -9 12 -8 101 2 376 14
392 11 444 -32 532 -72 147 -241 207 -398 141 -33 -14 -194 -111 -359 -216
l-298 -192 -122 22 c-106 20 -154 23 -386 23 -214 0 -283 -4 -360 -18 -52 -10
-108 -21 -125 -23 -26 -4 -74 23 -335 191 -168 107 -327 204 -355 214 -63 24
-138 32 -192 21z m418 -442 c167 -107 365 -234 438 -282 74 -48 149 -90 166
-93 35 -6 79 13 108 45 23 25 33 92 19 119 -11 19 -7 21 50 27 77 8 267 8 334
0 l51 -6 -10 -37 c-13 -48 10 -103 55 -131 56 -35 91 -24 261 88 215 141 684
440 718 457 57 30 99 12 115 -48 3 -16 1 -205 -6 -421 -7 -216 -10 -404 -7
-417 4 -13 32 -53 63 -89 121 -139 226 -324 277 -486 45 -143 72 -314 49 -314
-4 0 -39 7 -77 15 -134 28 -188 17 -220 -45 -42 -81 4 -160 103 -180 95 -19
187 -42 194 -49 7 -6 -24 -167 -35 -177 -3 -4 -35 1 -70 9 -109 28 -169 31
-205 13 -60 -31 -80 -112 -42 -173 24 -40 39 -48 127 -63 101 -18 102 -19 63
-81 -148 -240 -354 -420 -645 -560 -276 -134 -580 -199 -925 -199 -350 0 -653
66 -935 205 -217 106 -371 221 -507 379 -88 101 -166 225 -149 235 7 5 45 14
84 21 88 15 103 23 127 63 38 61 18 142 -42 173 -36 18 -96 15 -205 -13 -35
-8 -67 -13 -70 -9 -11 10 -42 171 -35 177 7 7 99 30 194 49 99 20 145 99 103
180 -32 62 -86 73 -220 45 -38 -8 -73 -15 -77 -15 -13 0 -9 76 8 158 49 237
147 437 310 633 35 42 68 88 73 102 7 17 3 148 -10 399 -11 205 -18 390 -15
411 2 21 12 49 21 64 31 47 65 32 396 -179z"/>
<path d="M3144 2814 c-89 -32 -159 -122 -170 -221 -12 -100 43 -205 136 -257
46 -26 65 -30 125 -30 58 0 79 5 124 29 156 86 187 290 63 414 -75 75 -180
100 -278 65z"/>
<path d="M1790 2807 c-141 -41 -236 -134 -275 -271 -33 -115 -6 -193 76 -218
74 -22 141 32 153 122 24 177 259 176 282 -2 12 -92 86 -145 162 -116 79 30
100 109 62 229 -35 112 -117 198 -228 242 -61 24 -174 31 -232 14z"/>
<path d="M2042 2080 c-40 -24 -66 -81 -58 -124 4 -17 29 -61 56 -98 254 -344
786 -344 1040 0 27 37 52 81 56 98 8 43 -18 100 -58 124 -64 39 -127 19 -177
-54 -169 -245 -513 -245 -682 0 -50 73 -113 93 -177 54z"/>
</g>
</svg>
